<mxfile host="65bd71144e">
    <diagram id="JSFes8emplsJExVVxM_k" name="b - kmap">
        <mxGraphModel dx="881" dy="1667" grid="1" gridSize="10" guides="1" tooltips="1" connect="1" arrows="1" fold="1" page="1" pageScale="1" pageWidth="1000" pageHeight="1000" math="0" shadow="0">
            <root>
                <mxCell id="0"/>
                <mxCell id="1" parent="0"/>
                <mxCell id="UIwPdJ0_hA-uNKSl3yua-1" value="" style="whiteSpace=wrap;html=1;aspect=fixed;fillColor=none;strokeColor=light-dark(#000000,#060606);strokeWidth=3;container=0;" parent="1" vertex="1">
                    <mxGeometry x="190" y="-740" width="400" height="400" as="geometry"/>
                </mxCell>
                <mxCell id="UIwPdJ0_hA-uNKSl3yua-2" value="Blue LED" style="rounded=0;whiteSpace=wrap;html=1;strokeWidth=3;strokeColor=light-dark(#000000,#000000);fillColor=light-dark(#FFFFFF,#FFFFFF);fontColor=light-dark(#000000,#000000);container=0;fontSize=25;" parent="1" vertex="1">
                    <mxGeometry x="190" y="-780" width="400" height="40" as="geometry"/>
                </mxCell>
                <mxCell id="UIwPdJ0_hA-uNKSl3yua-3" value="" style="whiteSpace=wrap;html=1;aspect=fixed;fillColor=light-dark(#FFFFFF,#FFFFFF);strokeWidth=2;strokeColor=light-dark(#000000,#000000);fontColor=light-dark(#000000,#080808);container=0;" parent="1" vertex="1">
                    <mxGeometry x="190" y="-740" width="80" height="80" as="geometry"/>
                </mxCell>
                <mxCell id="UIwPdJ0_hA-uNKSl3yua-4" value="&lt;b&gt;&lt;font style=&quot;font-size: 20px; color: light-dark(rgb(0, 0, 0), rgb(0, 0, 0));&quot;&gt;b1b2&lt;/font&gt;&lt;/b&gt;" style="text;html=1;align=center;verticalAlign=middle;resizable=0;points=[];autosize=1;strokeColor=none;fillColor=none;fontColor=light-dark(#000000,#000000);container=0;" parent="1" vertex="1">
                    <mxGeometry x="180" y="-700" width="70" height="40" as="geometry"/>
                </mxCell>
                <mxCell id="UIwPdJ0_hA-uNKSl3yua-5" value="" style="endArrow=none;html=1;entryX=0;entryY=0;entryDx=0;entryDy=0;exitX=0;exitY=0;exitDx=0;exitDy=0;strokeWidth=2;fontColor=light-dark(#000000,#000000);strokeColor=light-dark(#000000,#000000);" parent="1" edge="1">
                    <mxGeometry width="50" height="50" relative="1" as="geometry">
                        <mxPoint x="270" y="-660" as="sourcePoint"/>
                        <mxPoint x="190" y="-740" as="targetPoint"/>
                    </mxGeometry>
                </mxCell>
                <mxCell id="UIwPdJ0_hA-uNKSl3yua-6" value="&lt;b&gt;&lt;font style=&quot;font-size: 20px; color: light-dark(rgb(0, 0, 0), rgb(0, 0, 0));&quot;&gt;a1a2&amp;nbsp;&lt;/font&gt;&lt;/b&gt;" style="text;html=1;align=center;verticalAlign=middle;resizable=0;points=[];autosize=1;strokeColor=none;fillColor=none;fontColor=light-dark(#000000,#000000);container=0;" parent="1" vertex="1">
                    <mxGeometry x="210" y="-740" width="70" height="40" as="geometry"/>
                </mxCell>
                <mxCell id="UIwPdJ0_hA-uNKSl3yua-7" value="01" style="whiteSpace=wrap;html=1;aspect=fixed;fillColor=light-dark(#FFFFFF,#FFFFFF);strokeWidth=2;fontSize=24;strokeColor=light-dark(#000000,#000000);fontColor=light-dark(#000000,#080808);container=0;" parent="1" vertex="1">
                    <mxGeometry x="190" y="-580" width="80" height="80" as="geometry"/>
                </mxCell>
                <mxCell id="UIwPdJ0_hA-uNKSl3yua-8" value="10" style="whiteSpace=wrap;html=1;aspect=fixed;fillColor=light-dark(#FFFFFF,#FFFFFF);strokeWidth=2;fontSize=24;strokeColor=light-dark(#000000,#000000);fontColor=light-dark(#000000,#080808);container=0;" parent="1" vertex="1">
                    <mxGeometry x="190" y="-500" width="80" height="80" as="geometry"/>
                </mxCell>
                <mxCell id="UIwPdJ0_hA-uNKSl3yua-9" value="00" style="whiteSpace=wrap;html=1;aspect=fixed;fillColor=light-dark(#FFFFFF,#FFFFFF);strokeWidth=2;fontSize=24;strokeColor=light-dark(#000000,#000000);fontColor=light-dark(#000000,#080808);container=0;" parent="1" vertex="1">
                    <mxGeometry x="190" y="-660" width="80" height="80" as="geometry"/>
                </mxCell>
                <mxCell id="UIwPdJ0_hA-uNKSl3yua-10" value="11" style="whiteSpace=wrap;html=1;aspect=fixed;fillColor=light-dark(#FFFFFF,#FFFFFF);strokeWidth=2;fontSize=24;strokeColor=light-dark(#000000,#000000);fontColor=light-dark(#000000,#080808);container=0;" parent="1" vertex="1">
                    <mxGeometry x="190" y="-420" width="80" height="80" as="geometry"/>
                </mxCell>
                <mxCell id="UIwPdJ0_hA-uNKSl3yua-11" value="00" style="whiteSpace=wrap;html=1;aspect=fixed;fillColor=light-dark(#FFFFFF,#FFFFFF);strokeWidth=2;fontSize=24;strokeColor=light-dark(#000000,#000000);fontColor=light-dark(#000000,#080808);container=0;" parent="1" vertex="1">
                    <mxGeometry x="270" y="-740" width="80" height="80" as="geometry"/>
                </mxCell>
                <mxCell id="UIwPdJ0_hA-uNKSl3yua-12" value="01" style="whiteSpace=wrap;html=1;aspect=fixed;fillColor=light-dark(#FFFFFF,#FFFFFF);strokeWidth=2;fontSize=24;strokeColor=light-dark(#000000,#000000);fontColor=light-dark(#000000,#080808);container=0;" parent="1" vertex="1">
                    <mxGeometry x="350" y="-740" width="80" height="80" as="geometry"/>
                </mxCell>
                <mxCell id="UIwPdJ0_hA-uNKSl3yua-13" value="11" style="whiteSpace=wrap;html=1;aspect=fixed;fillColor=light-dark(#FFFFFF,#FFFFFF);strokeWidth=2;fontSize=24;strokeColor=light-dark(#000000,#000000);fontColor=light-dark(#000000,#080808);container=0;" parent="1" vertex="1">
                    <mxGeometry x="430" y="-740" width="80" height="80" as="geometry"/>
                </mxCell>
                <mxCell id="UIwPdJ0_hA-uNKSl3yua-14" value="10" style="whiteSpace=wrap;html=1;aspect=fixed;fillColor=light-dark(#FFFFFF,#FFFFFF);strokeWidth=2;fontSize=24;strokeColor=light-dark(#000000,#000000);fontColor=light-dark(#000000,#080808);container=0;" parent="1" vertex="1">
                    <mxGeometry x="510" y="-740" width="80" height="80" as="geometry"/>
                </mxCell>
                <mxCell id="UIwPdJ0_hA-uNKSl3yua-15" value="0" style="whiteSpace=wrap;html=1;aspect=fixed;strokeWidth=2;shadow=0;strokeColor=light-dark(#000000,#2E2E2E);fillColor=light-dark(#FFFFFF,#FFFFFF);fontColor=light-dark(#000000,#080808);container=0;fontSize=21;" parent="1" vertex="1">
                    <mxGeometry x="270" y="-660" width="80" height="80" as="geometry"/>
                </mxCell>
                <mxCell id="UIwPdJ0_hA-uNKSl3yua-16" value="1" style="whiteSpace=wrap;html=1;aspect=fixed;strokeWidth=2;shadow=0;strokeColor=light-dark(#000000,#2E2E2E);fillColor=light-dark(#FFFFFF,#FFFFFF);fontColor=light-dark(#000000,#080808);container=0;fontSize=21;" parent="1" vertex="1">
                    <mxGeometry x="350" y="-660" width="80" height="80" as="geometry"/>
                </mxCell>
                <mxCell id="UIwPdJ0_hA-uNKSl3yua-17" value="1" style="whiteSpace=wrap;html=1;aspect=fixed;strokeWidth=2;shadow=0;strokeColor=light-dark(#000000,#2E2E2E);fillColor=light-dark(#FFFFFF,#FFFFFF);fontColor=light-dark(#000000,#080808);container=0;fontSize=21;" parent="1" vertex="1">
                    <mxGeometry x="430" y="-660" width="80" height="80" as="geometry"/>
                </mxCell>
                <mxCell id="UIwPdJ0_hA-uNKSl3yua-18" value="1" style="whiteSpace=wrap;html=1;aspect=fixed;strokeWidth=2;shadow=0;strokeColor=light-dark(#000000,#2E2E2E);fillColor=light-dark(#FFFFFF,#FFFFFF);fontColor=light-dark(#000000,#080808);container=0;fontSize=21;" parent="1" vertex="1">
                    <mxGeometry x="510" y="-660" width="80" height="80" as="geometry"/>
                </mxCell>
                <mxCell id="UIwPdJ0_hA-uNKSl3yua-19" value="1" style="whiteSpace=wrap;html=1;aspect=fixed;strokeWidth=2;shadow=0;strokeColor=light-dark(#000000,#2E2E2E);fillColor=light-dark(#FFFFFF,#FFFFFF);fontColor=light-dark(#000000,#080808);container=0;fontSize=21;" parent="1" vertex="1">
                    <mxGeometry x="270" y="-580" width="80" height="80" as="geometry"/>
                </mxCell>
                <mxCell id="UIwPdJ0_hA-uNKSl3yua-20" value="0" style="whiteSpace=wrap;html=1;aspect=fixed;strokeWidth=2;shadow=0;strokeColor=light-dark(#000000,#2E2E2E);fillColor=light-dark(#FFFFFF,#FFFFFF);fontColor=light-dark(#000000,#080808);container=0;fontSize=21;" parent="1" vertex="1">
                    <mxGeometry x="350" y="-580" width="80" height="80" as="geometry"/>
                </mxCell>
                <mxCell id="UIwPdJ0_hA-uNKSl3yua-21" value="1" style="whiteSpace=wrap;html=1;aspect=fixed;strokeWidth=2;shadow=0;strokeColor=light-dark(#000000,#2E2E2E);fillColor=light-dark(#FFFFFF,#FFFFFF);fontColor=light-dark(#000000,#080808);container=0;fontSize=21;" parent="1" vertex="1">
                    <mxGeometry x="430" y="-580" width="80" height="80" as="geometry"/>
                </mxCell>
                <mxCell id="UIwPdJ0_hA-uNKSl3yua-22" value="1" style="whiteSpace=wrap;html=1;aspect=fixed;strokeWidth=2;shadow=0;strokeColor=light-dark(#000000,#2E2E2E);fillColor=light-dark(#FFFFFF,#FFFFFF);fontColor=light-dark(#000000,#080808);container=0;fontSize=21;" parent="1" vertex="1">
                    <mxGeometry x="510" y="-580" width="80" height="80" as="geometry"/>
                </mxCell>
                <mxCell id="UIwPdJ0_hA-uNKSl3yua-23" value="1" style="whiteSpace=wrap;html=1;aspect=fixed;strokeWidth=2;shadow=0;strokeColor=light-dark(#000000,#2E2E2E);fillColor=light-dark(#FFFFFF,#FFFFFF);fontColor=light-dark(#000000,#080808);container=0;fontSize=21;" parent="1" vertex="1">
                    <mxGeometry x="270" y="-500" width="80" height="80" as="geometry"/>
                </mxCell>
                <mxCell id="UIwPdJ0_hA-uNKSl3yua-24" value="1" style="whiteSpace=wrap;html=1;aspect=fixed;strokeWidth=2;shadow=0;strokeColor=light-dark(#000000,#2E2E2E);fillColor=light-dark(#FFFFFF,#FFFFFF);fontColor=light-dark(#000000,#080808);container=0;fontSize=21;" parent="1" vertex="1">
                    <mxGeometry x="350" y="-500" width="80" height="80" as="geometry"/>
                </mxCell>
                <mxCell id="UIwPdJ0_hA-uNKSl3yua-25" value="0" style="whiteSpace=wrap;html=1;aspect=fixed;strokeWidth=2;shadow=0;strokeColor=light-dark(#000000,#2E2E2E);fillColor=light-dark(#FFFFFF,#FFFFFF);fontColor=light-dark(#000000,#080808);container=0;fontSize=21;" parent="1" vertex="1">
                    <mxGeometry x="430" y="-500" width="80" height="80" as="geometry"/>
                </mxCell>
                <mxCell id="UIwPdJ0_hA-uNKSl3yua-26" value="1" style="whiteSpace=wrap;html=1;aspect=fixed;strokeWidth=2;shadow=0;strokeColor=light-dark(#000000,#2E2E2E);fillColor=light-dark(#FFFFFF,#FFFFFF);fontColor=light-dark(#000000,#080808);container=0;fontSize=21;" parent="1" vertex="1">
                    <mxGeometry x="510" y="-500" width="80" height="80" as="geometry"/>
                </mxCell>
                <mxCell id="UIwPdJ0_hA-uNKSl3yua-27" value="1" style="whiteSpace=wrap;html=1;aspect=fixed;strokeWidth=2;shadow=0;strokeColor=light-dark(#000000,#2E2E2E);fillColor=light-dark(#FFFFFF,#FFFFFF);fontColor=light-dark(#000000,#080808);container=0;fontSize=21;" parent="1" vertex="1">
                    <mxGeometry x="270" y="-420" width="80" height="80" as="geometry"/>
                </mxCell>
                <mxCell id="UIwPdJ0_hA-uNKSl3yua-28" value="1" style="whiteSpace=wrap;html=1;aspect=fixed;strokeWidth=2;shadow=0;strokeColor=light-dark(#000000,#2E2E2E);fillColor=light-dark(#FFFFFF,#FFFFFF);fontColor=light-dark(#000000,#080808);container=0;fontSize=21;" parent="1" vertex="1">
                    <mxGeometry x="350" y="-420" width="80" height="80" as="geometry"/>
                </mxCell>
                <mxCell id="UIwPdJ0_hA-uNKSl3yua-29" value="1" style="whiteSpace=wrap;html=1;aspect=fixed;strokeWidth=2;shadow=0;strokeColor=light-dark(#000000,#2E2E2E);fillColor=light-dark(#FFFFFF,#FFFFFF);fontColor=light-dark(#000000,#080808);container=0;fontSize=21;" parent="1" vertex="1">
                    <mxGeometry x="430" y="-420" width="80" height="80" as="geometry"/>
                </mxCell>
                <mxCell id="UIwPdJ0_hA-uNKSl3yua-30" value="0" style="whiteSpace=wrap;html=1;aspect=fixed;strokeWidth=2;shadow=0;strokeColor=light-dark(#000000,#2E2E2E);fillColor=light-dark(#FFFFFF,#FFFFFF);fontColor=light-dark(#000000,#080808);container=0;fontSize=21;" parent="1" vertex="1">
                    <mxGeometry x="510" y="-420" width="80" height="80" as="geometry"/>
                </mxCell>
            </root>
        </mxGraphModel>
    </diagram>
    <diagram id="b0skkCzX4s7TaGlNKIlP" name="g - kmap">
        <mxGraphModel dx="881" dy="1667" grid="1" gridSize="10" guides="1" tooltips="1" connect="1" arrows="1" fold="1" page="1" pageScale="1" pageWidth="1000" pageHeight="1000" math="0" shadow="0">
            <root>
                <mxCell id="0"/>
                <mxCell id="1" parent="0"/>
                <mxCell id="fQbGa4Vlxma_FQvl981D-1" value="" style="whiteSpace=wrap;html=1;aspect=fixed;fillColor=none;strokeColor=light-dark(#000000,#060606);strokeWidth=3;container=0;" parent="1" vertex="1">
                    <mxGeometry x="190" y="-740" width="400" height="400" as="geometry"/>
                </mxCell>
                <mxCell id="fQbGa4Vlxma_FQvl981D-2" value="&lt;font&gt;Green&lt;/font&gt;&lt;span style=&quot;background-color: transparent;&quot;&gt;&amp;nbsp;LED&lt;/span&gt;" style="rounded=0;whiteSpace=wrap;html=1;strokeWidth=3;strokeColor=light-dark(#000000,#000000);fillColor=light-dark(#FFFFFF,#FFFFFF);fontColor=light-dark(#000000,#000000);container=0;fontSize=25;" parent="1" vertex="1">
                    <mxGeometry x="190" y="-780" width="400" height="40" as="geometry"/>
                </mxCell>
                <mxCell id="fQbGa4Vlxma_FQvl981D-3" value="" style="whiteSpace=wrap;html=1;aspect=fixed;fillColor=light-dark(#FFFFFF,#FFFFFF);strokeWidth=2;strokeColor=light-dark(#000000,#000000);fontColor=light-dark(#000000,#080808);container=0;" parent="1" vertex="1">
                    <mxGeometry x="190" y="-740" width="80" height="80" as="geometry"/>
                </mxCell>
                <mxCell id="fQbGa4Vlxma_FQvl981D-4" value="&lt;b&gt;&lt;font style=&quot;font-size: 20px; color: light-dark(rgb(0, 0, 0), rgb(0, 0, 0));&quot;&gt;b1b2&lt;/font&gt;&lt;/b&gt;" style="text;html=1;align=center;verticalAlign=middle;resizable=0;points=[];autosize=1;strokeColor=none;fillColor=none;fontColor=light-dark(#000000,#000000);container=0;" parent="1" vertex="1">
                    <mxGeometry x="180" y="-700" width="70" height="40" as="geometry"/>
                </mxCell>
                <mxCell id="fQbGa4Vlxma_FQvl981D-5" value="" style="endArrow=none;html=1;entryX=0;entryY=0;entryDx=0;entryDy=0;exitX=0;exitY=0;exitDx=0;exitDy=0;strokeWidth=2;fontColor=light-dark(#000000,#000000);strokeColor=light-dark(#000000,#000000);" parent="1" edge="1">
                    <mxGeometry width="50" height="50" relative="1" as="geometry">
                        <mxPoint x="270" y="-660" as="sourcePoint"/>
                        <mxPoint x="190" y="-740" as="targetPoint"/>
                    </mxGeometry>
                </mxCell>
                <mxCell id="fQbGa4Vlxma_FQvl981D-6" value="&lt;b&gt;&lt;font style=&quot;font-size: 20px; color: light-dark(rgb(0, 0, 0), rgb(0, 0, 0));&quot;&gt;a1a2&amp;nbsp;&lt;/font&gt;&lt;/b&gt;" style="text;html=1;align=center;verticalAlign=middle;resizable=0;points=[];autosize=1;strokeColor=none;fillColor=none;fontColor=light-dark(#000000,#000000);container=0;" parent="1" vertex="1">
                    <mxGeometry x="210" y="-740" width="70" height="40" as="geometry"/>
                </mxCell>
                <mxCell id="fQbGa4Vlxma_FQvl981D-7" value="01" style="whiteSpace=wrap;html=1;aspect=fixed;fillColor=light-dark(#FFFFFF,#FFFFFF);strokeWidth=2;fontSize=24;strokeColor=light-dark(#000000,#000000);fontColor=light-dark(#000000,#080808);container=0;" parent="1" vertex="1">
                    <mxGeometry x="190" y="-580" width="80" height="80" as="geometry"/>
                </mxCell>
                <mxCell id="fQbGa4Vlxma_FQvl981D-8" value="10" style="whiteSpace=wrap;html=1;aspect=fixed;fillColor=light-dark(#FFFFFF,#FFFFFF);strokeWidth=2;fontSize=24;strokeColor=light-dark(#000000,#000000);fontColor=light-dark(#000000,#080808);container=0;" parent="1" vertex="1">
                    <mxGeometry x="190" y="-500" width="80" height="80" as="geometry"/>
                </mxCell>
                <mxCell id="fQbGa4Vlxma_FQvl981D-9" value="00" style="whiteSpace=wrap;html=1;aspect=fixed;fillColor=light-dark(#FFFFFF,#FFFFFF);strokeWidth=2;fontSize=24;strokeColor=light-dark(#000000,#000000);fontColor=light-dark(#000000,#080808);container=0;" parent="1" vertex="1">
                    <mxGeometry x="190" y="-660" width="80" height="80" as="geometry"/>
                </mxCell>
                <mxCell id="fQbGa4Vlxma_FQvl981D-10" value="11" style="whiteSpace=wrap;html=1;aspect=fixed;fillColor=light-dark(#FFFFFF,#FFFFFF);strokeWidth=2;fontSize=24;strokeColor=light-dark(#000000,#000000);fontColor=light-dark(#000000,#080808);container=0;" parent="1" vertex="1">
                    <mxGeometry x="190" y="-420" width="80" height="80" as="geometry"/>
                </mxCell>
                <mxCell id="fQbGa4Vlxma_FQvl981D-11" value="00" style="whiteSpace=wrap;html=1;aspect=fixed;fillColor=light-dark(#FFFFFF,#FFFFFF);strokeWidth=2;fontSize=24;strokeColor=light-dark(#000000,#000000);fontColor=light-dark(#000000,#080808);container=0;" parent="1" vertex="1">
                    <mxGeometry x="270" y="-740" width="80" height="80" as="geometry"/>
                </mxCell>
                <mxCell id="fQbGa4Vlxma_FQvl981D-12" value="01" style="whiteSpace=wrap;html=1;aspect=fixed;fillColor=light-dark(#FFFFFF,#FFFFFF);strokeWidth=2;fontSize=24;strokeColor=light-dark(#000000,#000000);fontColor=light-dark(#000000,#080808);container=0;" parent="1" vertex="1">
                    <mxGeometry x="350" y="-740" width="80" height="80" as="geometry"/>
                </mxCell>
                <mxCell id="fQbGa4Vlxma_FQvl981D-13" value="10" style="whiteSpace=wrap;html=1;aspect=fixed;fillColor=light-dark(#FFFFFF,#FFFFFF);strokeWidth=2;fontSize=24;strokeColor=light-dark(#000000,#000000);fontColor=light-dark(#000000,#080808);container=0;" parent="1" vertex="1">
                    <mxGeometry x="430" y="-740" width="80" height="80" as="geometry"/>
                </mxCell>
                <mxCell id="fQbGa4Vlxma_FQvl981D-14" value="11" style="whiteSpace=wrap;html=1;aspect=fixed;fillColor=light-dark(#FFFFFF,#FFFFFF);strokeWidth=2;fontSize=24;strokeColor=light-dark(#000000,#000000);fontColor=light-dark(#000000,#080808);container=0;" parent="1" vertex="1">
                    <mxGeometry x="510" y="-740" width="80" height="80" as="geometry"/>
                </mxCell>
                <mxCell id="fQbGa4Vlxma_FQvl981D-15" value="1" style="whiteSpace=wrap;html=1;aspect=fixed;strokeWidth=2;shadow=0;strokeColor=light-dark(#000000,#2E2E2E);fillColor=light-dark(#FFFFFF,#FFFFFF);fontColor=light-dark(#000000,#080808);container=0;fontSize=21;" parent="1" vertex="1">
                    <mxGeometry x="270" y="-660" width="80" height="80" as="geometry"/>
                </mxCell>
                <mxCell id="fQbGa4Vlxma_FQvl981D-16" value="0" style="whiteSpace=wrap;html=1;aspect=fixed;strokeWidth=2;shadow=0;strokeColor=light-dark(#000000,#2E2E2E);fillColor=light-dark(#FFFFFF,#FFFFFF);fontColor=light-dark(#000000,#080808);container=0;fontSize=21;" parent="1" vertex="1">
                    <mxGeometry x="350" y="-660" width="80" height="80" as="geometry"/>
                </mxCell>
                <mxCell id="fQbGa4Vlxma_FQvl981D-17" value="0" style="whiteSpace=wrap;html=1;aspect=fixed;strokeWidth=2;shadow=0;strokeColor=light-dark(#000000,#2E2E2E);fillColor=light-dark(#FFFFFF,#FFFFFF);fontColor=light-dark(#000000,#080808);container=0;fontSize=21;" parent="1" vertex="1">
                    <mxGeometry x="430" y="-660" width="80" height="80" as="geometry"/>
                </mxCell>
                <mxCell id="fQbGa4Vlxma_FQvl981D-18" value="0" style="whiteSpace=wrap;html=1;aspect=fixed;strokeWidth=2;shadow=0;strokeColor=light-dark(#000000,#2E2E2E);fillColor=light-dark(#FFFFFF,#FFFFFF);fontColor=light-dark(#000000,#080808);container=0;fontSize=21;" parent="1" vertex="1">
                    <mxGeometry x="510" y="-660" width="80" height="80" as="geometry"/>
                </mxCell>
                <mxCell id="fQbGa4Vlxma_FQvl981D-19" value="1" style="whiteSpace=wrap;html=1;aspect=fixed;strokeWidth=2;shadow=0;strokeColor=light-dark(#000000,#2E2E2E);fillColor=light-dark(#FFFFFF,#FFFFFF);fontColor=light-dark(#000000,#080808);container=0;fontSize=21;" parent="1" vertex="1">
                    <mxGeometry x="270" y="-580" width="80" height="80" as="geometry"/>
                </mxCell>
                <mxCell id="fQbGa4Vlxma_FQvl981D-20" value="1" style="whiteSpace=wrap;html=1;aspect=fixed;strokeWidth=2;shadow=0;strokeColor=light-dark(#000000,#2E2E2E);fillColor=light-dark(#FFFFFF,#FFFFFF);fontColor=light-dark(#000000,#080808);container=0;fontSize=21;" parent="1" vertex="1">
                    <mxGeometry x="350" y="-580" width="80" height="80" as="geometry"/>
                </mxCell>
                <mxCell id="fQbGa4Vlxma_FQvl981D-21" value="0" style="whiteSpace=wrap;html=1;aspect=fixed;strokeWidth=2;shadow=0;strokeColor=light-dark(#000000,#2E2E2E);fillColor=light-dark(#FFFFFF,#FFFFFF);fontColor=light-dark(#000000,#080808);container=0;fontSize=21;" parent="1" vertex="1">
                    <mxGeometry x="430" y="-580" width="80" height="80" as="geometry"/>
                </mxCell>
                <mxCell id="fQbGa4Vlxma_FQvl981D-22" value="0" style="whiteSpace=wrap;html=1;aspect=fixed;strokeWidth=2;shadow=0;strokeColor=light-dark(#000000,#2E2E2E);fillColor=light-dark(#FFFFFF,#FFFFFF);fontColor=light-dark(#000000,#080808);container=0;fontSize=21;" parent="1" vertex="1">
                    <mxGeometry x="510" y="-580" width="80" height="80" as="geometry"/>
                </mxCell>
                <mxCell id="fQbGa4Vlxma_FQvl981D-23" value="1" style="whiteSpace=wrap;html=1;aspect=fixed;strokeWidth=2;shadow=0;strokeColor=light-dark(#000000,#2E2E2E);fillColor=light-dark(#FFFFFF,#FFFFFF);fontColor=light-dark(#000000,#080808);container=0;fontSize=21;" parent="1" vertex="1">
                    <mxGeometry x="270" y="-500" width="80" height="80" as="geometry"/>
                </mxCell>
                <mxCell id="fQbGa4Vlxma_FQvl981D-24" value="1" style="whiteSpace=wrap;html=1;aspect=fixed;strokeWidth=2;shadow=0;strokeColor=light-dark(#000000,#2E2E2E);fillColor=light-dark(#FFFFFF,#FFFFFF);fontColor=light-dark(#000000,#080808);container=0;fontSize=21;" parent="1" vertex="1">
                    <mxGeometry x="350" y="-500" width="80" height="80" as="geometry"/>
                </mxCell>
                <mxCell id="fQbGa4Vlxma_FQvl981D-25" value="1" style="whiteSpace=wrap;html=1;aspect=fixed;strokeWidth=2;shadow=0;strokeColor=light-dark(#000000,#2E2E2E);fillColor=light-dark(#FFFFFF,#FFFFFF);fontColor=light-dark(#000000,#080808);container=0;fontSize=21;" parent="1" vertex="1">
                    <mxGeometry x="430" y="-500" width="80" height="80" as="geometry"/>
                </mxCell>
                <mxCell id="fQbGa4Vlxma_FQvl981D-26" value="0" style="whiteSpace=wrap;html=1;aspect=fixed;strokeWidth=2;shadow=0;strokeColor=light-dark(#000000,#2E2E2E);fillColor=light-dark(#FFFFFF,#FFFFFF);fontColor=light-dark(#000000,#080808);container=0;fontSize=21;" parent="1" vertex="1">
                    <mxGeometry x="510" y="-500" width="80" height="80" as="geometry"/>
                </mxCell>
                <mxCell id="fQbGa4Vlxma_FQvl981D-27" value="1" style="whiteSpace=wrap;html=1;aspect=fixed;strokeWidth=2;shadow=0;strokeColor=light-dark(#000000,#2E2E2E);fillColor=light-dark(#FFFFFF,#FFFFFF);fontColor=light-dark(#000000,#080808);container=0;fontSize=21;" parent="1" vertex="1">
                    <mxGeometry x="270" y="-420" width="80" height="80" as="geometry"/>
                </mxCell>
                <mxCell id="fQbGa4Vlxma_FQvl981D-28" value="1" style="whiteSpace=wrap;html=1;aspect=fixed;strokeWidth=2;shadow=0;strokeColor=light-dark(#000000,#2E2E2E);fillColor=light-dark(#FFFFFF,#FFFFFF);fontColor=light-dark(#000000,#080808);container=0;fontSize=21;" parent="1" vertex="1">
                    <mxGeometry x="350" y="-420" width="80" height="80" as="geometry"/>
                </mxCell>
                <mxCell id="fQbGa4Vlxma_FQvl981D-29" value="1" style="whiteSpace=wrap;html=1;aspect=fixed;strokeWidth=2;shadow=0;strokeColor=light-dark(#000000,#2E2E2E);fillColor=light-dark(#FFFFFF,#FFFFFF);fontColor=light-dark(#000000,#080808);container=0;fontSize=21;" parent="1" vertex="1">
                    <mxGeometry x="430" y="-420" width="80" height="80" as="geometry"/>
                </mxCell>
                <mxCell id="fQbGa4Vlxma_FQvl981D-30" value="1" style="whiteSpace=wrap;html=1;aspect=fixed;strokeWidth=2;shadow=0;strokeColor=light-dark(#000000,#2E2E2E);fillColor=light-dark(#FFFFFF,#FFFFFF);fontColor=light-dark(#000000,#080808);container=0;fontSize=21;" parent="1" vertex="1">
                    <mxGeometry x="510" y="-420" width="80" height="80" as="geometry"/>
                </mxCell>
            </root>
        </mxGraphModel>
    </diagram>
    <diagram id="rxsCD7foj2kZPAudQjKV" name="r - kmap">
        <mxGraphModel dx="881" dy="1667" grid="1" gridSize="10" guides="1" tooltips="1" connect="1" arrows="1" fold="1" page="1" pageScale="1" pageWidth="1000" pageHeight="1000" math="0" shadow="0">
            <root>
                <mxCell id="0"/>
                <mxCell id="1" parent="0"/>
                <mxCell id="EsEbWgG33Ho5-OFE0Fmh-1" value="" style="whiteSpace=wrap;html=1;aspect=fixed;fillColor=none;strokeColor=light-dark(#000000,#060606);strokeWidth=3;container=0;" parent="1" vertex="1">
                    <mxGeometry x="190" y="-740" width="400" height="400" as="geometry"/>
                </mxCell>
                <mxCell id="EsEbWgG33Ho5-OFE0Fmh-2" value="&lt;font&gt;Red LED&lt;/font&gt;" style="rounded=0;whiteSpace=wrap;html=1;strokeWidth=3;strokeColor=light-dark(#000000,#000000);fillColor=light-dark(#FFFFFF,#FFFFFF);fontColor=light-dark(#000000,#000000);container=0;fontSize=25;" parent="1" vertex="1">
                    <mxGeometry x="190" y="-780" width="400" height="40" as="geometry"/>
                </mxCell>
                <mxCell id="EsEbWgG33Ho5-OFE0Fmh-3" value="" style="whiteSpace=wrap;html=1;aspect=fixed;fillColor=light-dark(#FFFFFF,#FFFFFF);strokeWidth=2;strokeColor=light-dark(#000000,#000000);fontColor=light-dark(#000000,#080808);container=0;" parent="1" vertex="1">
                    <mxGeometry x="190" y="-740" width="80" height="80" as="geometry"/>
                </mxCell>
                <mxCell id="EsEbWgG33Ho5-OFE0Fmh-4" value="&lt;b&gt;&lt;font style=&quot;font-size: 20px; color: light-dark(rgb(0, 0, 0), rgb(0, 0, 0));&quot;&gt;b1b2&lt;/font&gt;&lt;/b&gt;" style="text;html=1;align=center;verticalAlign=middle;resizable=0;points=[];autosize=1;strokeColor=none;fillColor=none;fontColor=light-dark(#000000,#000000);container=0;" parent="1" vertex="1">
                    <mxGeometry x="180" y="-700" width="70" height="40" as="geometry"/>
                </mxCell>
                <mxCell id="EsEbWgG33Ho5-OFE0Fmh-5" value="" style="endArrow=none;html=1;entryX=0;entryY=0;entryDx=0;entryDy=0;exitX=0;exitY=0;exitDx=0;exitDy=0;strokeWidth=2;fontColor=light-dark(#000000,#000000);strokeColor=light-dark(#000000,#000000);" parent="1" edge="1">
                    <mxGeometry width="50" height="50" relative="1" as="geometry">
                        <mxPoint x="270" y="-660" as="sourcePoint"/>
                        <mxPoint x="190" y="-740" as="targetPoint"/>
                    </mxGeometry>
                </mxCell>
                <mxCell id="EsEbWgG33Ho5-OFE0Fmh-6" value="&lt;b&gt;&lt;font style=&quot;font-size: 20px; color: light-dark(rgb(0, 0, 0), rgb(0, 0, 0));&quot;&gt;a1a2&amp;nbsp;&lt;/font&gt;&lt;/b&gt;" style="text;html=1;align=center;verticalAlign=middle;resizable=0;points=[];autosize=1;strokeColor=none;fillColor=none;fontColor=light-dark(#000000,#000000);container=0;" parent="1" vertex="1">
                    <mxGeometry x="210" y="-740" width="70" height="40" as="geometry"/>
                </mxCell>
                <mxCell id="EsEbWgG33Ho5-OFE0Fmh-7" value="01" style="whiteSpace=wrap;html=1;aspect=fixed;fillColor=light-dark(#FFFFFF,#FFFFFF);strokeWidth=2;fontSize=24;strokeColor=light-dark(#000000,#000000);fontColor=light-dark(#000000,#080808);container=0;" parent="1" vertex="1">
                    <mxGeometry x="190" y="-580" width="80" height="80" as="geometry"/>
                </mxCell>
                <mxCell id="EsEbWgG33Ho5-OFE0Fmh-8" value="10" style="whiteSpace=wrap;html=1;aspect=fixed;fillColor=light-dark(#FFFFFF,#FFFFFF);strokeWidth=2;fontSize=24;strokeColor=light-dark(#000000,#000000);fontColor=light-dark(#000000,#080808);container=0;" parent="1" vertex="1">
                    <mxGeometry x="190" y="-500" width="80" height="80" as="geometry"/>
                </mxCell>
                <mxCell id="EsEbWgG33Ho5-OFE0Fmh-9" value="00" style="whiteSpace=wrap;html=1;aspect=fixed;fillColor=light-dark(#FFFFFF,#FFFFFF);strokeWidth=2;fontSize=24;strokeColor=light-dark(#000000,#000000);fontColor=light-dark(#000000,#080808);container=0;" parent="1" vertex="1">
                    <mxGeometry x="190" y="-660" width="80" height="80" as="geometry"/>
                </mxCell>
                <mxCell id="EsEbWgG33Ho5-OFE0Fmh-10" value="11" style="whiteSpace=wrap;html=1;aspect=fixed;fillColor=light-dark(#FFFFFF,#FFFFFF);strokeWidth=2;fontSize=24;strokeColor=light-dark(#000000,#000000);fontColor=light-dark(#000000,#080808);container=0;" parent="1" vertex="1">
                    <mxGeometry x="190" y="-420" width="80" height="80" as="geometry"/>
                </mxCell>
                <mxCell id="EsEbWgG33Ho5-OFE0Fmh-11" value="00" style="whiteSpace=wrap;html=1;aspect=fixed;fillColor=light-dark(#FFFFFF,#FFFFFF);strokeWidth=2;fontSize=24;strokeColor=light-dark(#000000,#000000);fontColor=light-dark(#000000,#080808);container=0;" parent="1" vertex="1">
                    <mxGeometry x="270" y="-740" width="80" height="80" as="geometry"/>
                </mxCell>
                <mxCell id="EsEbWgG33Ho5-OFE0Fmh-12" value="01" style="whiteSpace=wrap;html=1;aspect=fixed;fillColor=light-dark(#FFFFFF,#FFFFFF);strokeWidth=2;fontSize=24;strokeColor=light-dark(#000000,#000000);fontColor=light-dark(#000000,#080808);container=0;" parent="1" vertex="1">
                    <mxGeometry x="350" y="-740" width="80" height="80" as="geometry"/>
                </mxCell>
                <mxCell id="EsEbWgG33Ho5-OFE0Fmh-13" value="10" style="whiteSpace=wrap;html=1;aspect=fixed;fillColor=light-dark(#FFFFFF,#FFFFFF);strokeWidth=2;fontSize=24;strokeColor=light-dark(#000000,#000000);fontColor=light-dark(#000000,#080808);container=0;" parent="1" vertex="1">
                    <mxGeometry x="430" y="-740" width="80" height="80" as="geometry"/>
                </mxCell>
                <mxCell id="EsEbWgG33Ho5-OFE0Fmh-14" value="11" style="whiteSpace=wrap;html=1;aspect=fixed;fillColor=light-dark(#FFFFFF,#FFFFFF);strokeWidth=2;fontSize=24;strokeColor=light-dark(#000000,#000000);fontColor=light-dark(#000000,#080808);container=0;" parent="1" vertex="1">
                    <mxGeometry x="510" y="-740" width="80" height="80" as="geometry"/>
                </mxCell>
                <mxCell id="EsEbWgG33Ho5-OFE0Fmh-15" value="1" style="whiteSpace=wrap;html=1;aspect=fixed;strokeWidth=2;shadow=0;strokeColor=light-dark(#000000,#2E2E2E);fillColor=light-dark(#FFFFFF,#FFFFFF);fontColor=light-dark(#000000,#080808);container=0;fontSize=21;" parent="1" vertex="1">
                    <mxGeometry x="270" y="-660" width="80" height="80" as="geometry"/>
                </mxCell>
                <mxCell id="EsEbWgG33Ho5-OFE0Fmh-16" value="1" style="whiteSpace=wrap;html=1;aspect=fixed;strokeWidth=2;shadow=0;strokeColor=light-dark(#000000,#2E2E2E);fillColor=light-dark(#FFFFFF,#FFFFFF);fontColor=light-dark(#000000,#080808);container=0;fontSize=21;" parent="1" vertex="1">
                    <mxGeometry x="350" y="-660" width="80" height="80" as="geometry"/>
                </mxCell>
                <mxCell id="EsEbWgG33Ho5-OFE0Fmh-17" value="1" style="whiteSpace=wrap;html=1;aspect=fixed;strokeWidth=2;shadow=0;strokeColor=light-dark(#000000,#2E2E2E);fillColor=light-dark(#FFFFFF,#FFFFFF);fontColor=light-dark(#000000,#080808);container=0;fontSize=21;" parent="1" vertex="1">
                    <mxGeometry x="430" y="-660" width="80" height="80" as="geometry"/>
                </mxCell>
                <mxCell id="EsEbWgG33Ho5-OFE0Fmh-18" value="1" style="whiteSpace=wrap;html=1;aspect=fixed;strokeWidth=2;shadow=0;strokeColor=light-dark(#000000,#2E2E2E);fillColor=light-dark(#FFFFFF,#FFFFFF);fontColor=light-dark(#000000,#080808);container=0;fontSize=21;" parent="1" vertex="1">
                    <mxGeometry x="510" y="-660" width="80" height="80" as="geometry"/>
                </mxCell>
                <mxCell id="EsEbWgG33Ho5-OFE0Fmh-19" value="0" style="whiteSpace=wrap;html=1;aspect=fixed;strokeWidth=2;shadow=0;strokeColor=light-dark(#000000,#2E2E2E);fillColor=light-dark(#FFFFFF,#FFFFFF);fontColor=light-dark(#000000,#080808);container=0;fontSize=21;" parent="1" vertex="1">
                    <mxGeometry x="270" y="-580" width="80" height="80" as="geometry"/>
                </mxCell>
                <mxCell id="EsEbWgG33Ho5-OFE0Fmh-20" value="1" style="whiteSpace=wrap;html=1;aspect=fixed;strokeWidth=2;shadow=0;strokeColor=light-dark(#000000,#2E2E2E);fillColor=light-dark(#FFFFFF,#FFFFFF);fontColor=light-dark(#000000,#080808);container=0;fontSize=21;" parent="1" vertex="1">
                    <mxGeometry x="350" y="-580" width="80" height="80" as="geometry"/>
                </mxCell>
                <mxCell id="EsEbWgG33Ho5-OFE0Fmh-21" value="1" style="whiteSpace=wrap;html=1;aspect=fixed;strokeWidth=2;shadow=0;strokeColor=light-dark(#000000,#2E2E2E);fillColor=light-dark(#FFFFFF,#FFFFFF);fontColor=light-dark(#000000,#080808);container=0;fontSize=21;" parent="1" vertex="1">
                    <mxGeometry x="430" y="-580" width="80" height="80" as="geometry"/>
                </mxCell>
                <mxCell id="EsEbWgG33Ho5-OFE0Fmh-22" value="1" style="whiteSpace=wrap;html=1;aspect=fixed;strokeWidth=2;shadow=0;strokeColor=light-dark(#000000,#2E2E2E);fillColor=light-dark(#FFFFFF,#FFFFFF);fontColor=light-dark(#000000,#080808);container=0;fontSize=21;" parent="1" vertex="1">
                    <mxGeometry x="510" y="-580" width="80" height="80" as="geometry"/>
                </mxCell>
                <mxCell id="EsEbWgG33Ho5-OFE0Fmh-23" value="0" style="whiteSpace=wrap;html=1;aspect=fixed;strokeWidth=2;shadow=0;strokeColor=light-dark(#000000,#2E2E2E);fillColor=light-dark(#FFFFFF,#FFFFFF);fontColor=light-dark(#000000,#080808);container=0;fontSize=21;" parent="1" vertex="1">
                    <mxGeometry x="270" y="-500" width="80" height="80" as="geometry"/>
                </mxCell>
                <mxCell id="EsEbWgG33Ho5-OFE0Fmh-24" value="0" style="whiteSpace=wrap;html=1;aspect=fixed;strokeWidth=2;shadow=0;strokeColor=light-dark(#000000,#2E2E2E);fillColor=light-dark(#FFFFFF,#FFFFFF);fontColor=light-dark(#000000,#080808);container=0;fontSize=21;" parent="1" vertex="1">
                    <mxGeometry x="350" y="-500" width="80" height="80" as="geometry"/>
                </mxCell>
                <mxCell id="EsEbWgG33Ho5-OFE0Fmh-25" value="1" style="whiteSpace=wrap;html=1;aspect=fixed;strokeWidth=2;shadow=0;strokeColor=light-dark(#000000,#2E2E2E);fillColor=light-dark(#FFFFFF,#FFFFFF);fontColor=light-dark(#000000,#080808);container=0;fontSize=21;" parent="1" vertex="1">
                    <mxGeometry x="430" y="-500" width="80" height="80" as="geometry"/>
                </mxCell>
                <mxCell id="EsEbWgG33Ho5-OFE0Fmh-26" value="1" style="whiteSpace=wrap;html=1;aspect=fixed;strokeWidth=2;shadow=0;strokeColor=light-dark(#000000,#2E2E2E);fillColor=light-dark(#FFFFFF,#FFFFFF);fontColor=light-dark(#000000,#080808);container=0;fontSize=21;" parent="1" vertex="1">
                    <mxGeometry x="510" y="-500" width="80" height="80" as="geometry"/>
                </mxCell>
                <mxCell id="EsEbWgG33Ho5-OFE0Fmh-27" value="0" style="whiteSpace=wrap;html=1;aspect=fixed;strokeWidth=2;shadow=0;strokeColor=light-dark(#000000,#2E2E2E);fillColor=light-dark(#FFFFFF,#FFFFFF);fontColor=light-dark(#000000,#080808);container=0;fontSize=21;" parent="1" vertex="1">
                    <mxGeometry x="270" y="-420" width="80" height="80" as="geometry"/>
                </mxCell>
                <mxCell id="EsEbWgG33Ho5-OFE0Fmh-28" value="0" style="whiteSpace=wrap;html=1;aspect=fixed;strokeWidth=2;shadow=0;strokeColor=light-dark(#000000,#2E2E2E);fillColor=light-dark(#FFFFFF,#FFFFFF);fontColor=light-dark(#000000,#080808);container=0;fontSize=21;" parent="1" vertex="1">
                    <mxGeometry x="350" y="-420" width="80" height="80" as="geometry"/>
                </mxCell>
                <mxCell id="EsEbWgG33Ho5-OFE0Fmh-29" value="0" style="whiteSpace=wrap;html=1;aspect=fixed;strokeWidth=2;shadow=0;strokeColor=light-dark(#000000,#2E2E2E);fillColor=light-dark(#FFFFFF,#FFFFFF);fontColor=light-dark(#000000,#080808);container=0;fontSize=21;" parent="1" vertex="1">
                    <mxGeometry x="430" y="-420" width="80" height="80" as="geometry"/>
                </mxCell>
                <mxCell id="EsEbWgG33Ho5-OFE0Fmh-30" value="1" style="whiteSpace=wrap;html=1;aspect=fixed;strokeWidth=2;shadow=0;strokeColor=light-dark(#000000,#2E2E2E);fillColor=light-dark(#FFFFFF,#FFFFFF);fontColor=light-dark(#000000,#080808);container=0;fontSize=21;" parent="1" vertex="1">
                    <mxGeometry x="510" y="-420" width="80" height="80" as="geometry"/>
                </mxCell>
            </root>
        </mxGraphModel>
    </diagram>
    <diagram id="QLQesPV0_Jk3BgJAjRyY" name="General">
        <mxGraphModel dx="881" dy="1667" grid="1" gridSize="10" guides="1" tooltips="1" connect="1" arrows="1" fold="1" page="1" pageScale="1" pageWidth="1000" pageHeight="1000" math="0" shadow="0">
            <root>
                <mxCell id="0"/>
                <mxCell id="1" parent="0"/>
                <mxCell id="32" value="" style="whiteSpace=wrap;html=1;aspect=fixed;fillColor=none;strokeColor=light-dark(#000000,#060606);strokeWidth=3;container=0;" parent="1" vertex="1">
                    <mxGeometry x="190" y="-740" width="400" height="400" as="geometry"/>
                </mxCell>
                <mxCell id="3" value="&lt;font&gt;General K-map&lt;/font&gt;" style="rounded=0;whiteSpace=wrap;html=1;strokeWidth=3;strokeColor=light-dark(#000000,#000000);fillColor=light-dark(#FFFFFF,#FFFFFF);fontColor=light-dark(#000000,#000000);container=0;fontSize=25;" parent="1" vertex="1">
                    <mxGeometry x="190" y="-780" width="400" height="40" as="geometry"/>
                </mxCell>
                <mxCell id="4" value="" style="whiteSpace=wrap;html=1;aspect=fixed;fillColor=light-dark(#FFFFFF,#FFFFFF);strokeWidth=2;strokeColor=light-dark(#000000,#000000);fontColor=light-dark(#000000,#080808);container=0;" parent="1" vertex="1">
                    <mxGeometry x="190" y="-740" width="80" height="80" as="geometry"/>
                </mxCell>
                <mxCell id="5" value="&lt;b&gt;&lt;font style=&quot;font-size: 20px; color: light-dark(rgb(0, 0, 0), rgb(0, 0, 0));&quot;&gt;b1b2&lt;/font&gt;&lt;/b&gt;" style="text;html=1;align=center;verticalAlign=middle;resizable=0;points=[];autosize=1;strokeColor=none;fillColor=none;fontColor=light-dark(#000000,#000000);container=0;" parent="1" vertex="1">
                    <mxGeometry x="180" y="-700" width="70" height="40" as="geometry"/>
                </mxCell>
                <mxCell id="6" value="" style="endArrow=none;html=1;entryX=0;entryY=0;entryDx=0;entryDy=0;exitX=0;exitY=0;exitDx=0;exitDy=0;strokeWidth=2;fontColor=light-dark(#000000,#000000);strokeColor=light-dark(#000000,#000000);" parent="1" edge="1">
                    <mxGeometry width="50" height="50" relative="1" as="geometry">
                        <mxPoint x="270" y="-660" as="sourcePoint"/>
                        <mxPoint x="190" y="-740" as="targetPoint"/>
                    </mxGeometry>
                </mxCell>
                <mxCell id="7" value="&lt;b&gt;&lt;font style=&quot;font-size: 20px; color: light-dark(rgb(0, 0, 0), rgb(0, 0, 0));&quot;&gt;a1a2&amp;nbsp;&lt;/font&gt;&lt;/b&gt;" style="text;html=1;align=center;verticalAlign=middle;resizable=0;points=[];autosize=1;strokeColor=none;fillColor=none;fontColor=light-dark(#000000,#000000);container=0;" parent="1" vertex="1">
                    <mxGeometry x="210" y="-740" width="70" height="40" as="geometry"/>
                </mxCell>
                <mxCell id="8" value="01" style="whiteSpace=wrap;html=1;aspect=fixed;fillColor=light-dark(#FFFFFF,#FFFFFF);strokeWidth=2;fontSize=24;strokeColor=light-dark(#000000,#000000);fontColor=light-dark(#000000,#080808);container=0;" parent="1" vertex="1">
                    <mxGeometry x="190" y="-580" width="80" height="80" as="geometry"/>
                </mxCell>
                <mxCell id="9" value="11" style="whiteSpace=wrap;html=1;aspect=fixed;fillColor=light-dark(#FFFFFF,#FFFFFF);strokeWidth=2;fontSize=24;strokeColor=light-dark(#000000,#000000);fontColor=light-dark(#000000,#080808);container=0;" parent="1" vertex="1">
                    <mxGeometry x="190" y="-500" width="80" height="80" as="geometry"/>
                </mxCell>
                <mxCell id="10" value="00" style="whiteSpace=wrap;html=1;aspect=fixed;fillColor=light-dark(#FFFFFF,#FFFFFF);strokeWidth=2;fontSize=24;strokeColor=light-dark(#000000,#000000);fontColor=light-dark(#000000,#080808);container=0;" parent="1" vertex="1">
                    <mxGeometry x="190" y="-660" width="80" height="80" as="geometry"/>
                </mxCell>
                <mxCell id="11" value="10" style="whiteSpace=wrap;html=1;aspect=fixed;fillColor=light-dark(#FFFFFF,#FFFFFF);strokeWidth=2;fontSize=24;strokeColor=light-dark(#000000,#000000);fontColor=light-dark(#000000,#080808);container=0;" parent="1" vertex="1">
                    <mxGeometry x="190" y="-420" width="80" height="80" as="geometry"/>
                </mxCell>
                <mxCell id="12" value="00" style="whiteSpace=wrap;html=1;aspect=fixed;fillColor=light-dark(#FFFFFF,#FFFFFF);strokeWidth=2;fontSize=24;strokeColor=light-dark(#000000,#000000);fontColor=light-dark(#000000,#080808);container=0;" parent="1" vertex="1">
                    <mxGeometry x="270" y="-740" width="80" height="80" as="geometry"/>
                </mxCell>
                <mxCell id="13" value="01" style="whiteSpace=wrap;html=1;aspect=fixed;fillColor=light-dark(#FFFFFF,#FFFFFF);strokeWidth=2;fontSize=24;strokeColor=light-dark(#000000,#000000);fontColor=light-dark(#000000,#080808);container=0;" parent="1" vertex="1">
                    <mxGeometry x="350" y="-740" width="80" height="80" as="geometry"/>
                </mxCell>
                <mxCell id="14" value="11" style="whiteSpace=wrap;html=1;aspect=fixed;fillColor=light-dark(#FFFFFF,#FFFFFF);strokeWidth=2;fontSize=24;strokeColor=light-dark(#000000,#000000);fontColor=light-dark(#000000,#080808);container=0;" parent="1" vertex="1">
                    <mxGeometry x="430" y="-740" width="80" height="80" as="geometry"/>
                </mxCell>
                <mxCell id="15" value="10" style="whiteSpace=wrap;html=1;aspect=fixed;fillColor=light-dark(#FFFFFF,#FFFFFF);strokeWidth=2;fontSize=24;strokeColor=light-dark(#000000,#000000);fontColor=light-dark(#000000,#080808);container=0;" parent="1" vertex="1">
                    <mxGeometry x="510" y="-740" width="80" height="80" as="geometry"/>
                </mxCell>
                <mxCell id="16" value="Y" style="whiteSpace=wrap;html=1;aspect=fixed;strokeWidth=2;shadow=0;strokeColor=light-dark(#000000,#2E2E2E);fillColor=light-dark(#FFFFFF,#FFFFFF);fontColor=light-dark(#000000,#080808);container=0;fontSize=21;" parent="1" vertex="1">
                    <mxGeometry x="270" y="-660" width="80" height="80" as="geometry"/>
                </mxCell>
                <mxCell id="17" value="P" style="whiteSpace=wrap;html=1;aspect=fixed;strokeWidth=2;shadow=0;strokeColor=light-dark(#000000,#2E2E2E);fillColor=light-dark(#FFFFFF,#FFFFFF);fontColor=light-dark(#000000,#080808);container=0;fontSize=21;" parent="1" vertex="1">
                    <mxGeometry x="350" y="-660" width="80" height="80" as="geometry"/>
                </mxCell>
                <mxCell id="18" value="P" style="whiteSpace=wrap;html=1;aspect=fixed;strokeWidth=2;shadow=0;strokeColor=light-dark(#000000,#2E2E2E);fillColor=light-dark(#FFFFFF,#FFFFFF);fontColor=light-dark(#000000,#080808);container=0;fontSize=21;" parent="1" vertex="1">
                    <mxGeometry x="430" y="-660" width="80" height="80" as="geometry"/>
                </mxCell>
                <mxCell id="19" value="P" style="whiteSpace=wrap;html=1;aspect=fixed;strokeWidth=2;shadow=0;strokeColor=light-dark(#000000,#2E2E2E);fillColor=light-dark(#FFFFFF,#FFFFFF);fontColor=light-dark(#000000,#080808);container=0;fontSize=21;" parent="1" vertex="1">
                    <mxGeometry x="510" y="-660" width="80" height="80" as="geometry"/>
                </mxCell>
                <mxCell id="20" value="C" style="whiteSpace=wrap;html=1;aspect=fixed;strokeWidth=2;shadow=0;strokeColor=light-dark(#000000,#2E2E2E);fillColor=light-dark(#FFFFFF,#FFFFFF);fontColor=light-dark(#000000,#080808);container=0;fontSize=21;" parent="1" vertex="1">
                    <mxGeometry x="270" y="-580" width="80" height="80" as="geometry"/>
                </mxCell>
                <mxCell id="21" value="Y" style="whiteSpace=wrap;html=1;aspect=fixed;strokeWidth=2;shadow=0;strokeColor=light-dark(#000000,#2E2E2E);fillColor=light-dark(#FFFFFF,#FFFFFF);fontColor=light-dark(#000000,#080808);container=0;fontSize=21;" parent="1" vertex="1">
                    <mxGeometry x="350" y="-580" width="80" height="80" as="geometry"/>
                </mxCell>
                <mxCell id="22" value="P" style="whiteSpace=wrap;html=1;aspect=fixed;strokeWidth=2;shadow=0;strokeColor=light-dark(#000000,#2E2E2E);fillColor=light-dark(#FFFFFF,#FFFFFF);fontColor=light-dark(#000000,#080808);container=0;fontSize=21;" parent="1" vertex="1">
                    <mxGeometry x="430" y="-580" width="80" height="80" as="geometry"/>
                </mxCell>
                <mxCell id="23" value="P" style="whiteSpace=wrap;html=1;aspect=fixed;strokeWidth=2;shadow=0;strokeColor=light-dark(#000000,#2E2E2E);fillColor=light-dark(#FFFFFF,#FFFFFF);fontColor=light-dark(#000000,#080808);container=0;fontSize=21;" parent="1" vertex="1">
                    <mxGeometry x="510" y="-580" width="80" height="80" as="geometry"/>
                </mxCell>
                <mxCell id="24" value="C" style="whiteSpace=wrap;html=1;aspect=fixed;strokeWidth=2;shadow=0;strokeColor=light-dark(#000000,#2E2E2E);fillColor=light-dark(#FFFFFF,#FFFFFF);fontColor=light-dark(#000000,#080808);container=0;fontSize=21;" parent="1" vertex="1">
                    <mxGeometry x="270" y="-500" width="80" height="80" as="geometry"/>
                </mxCell>
                <mxCell id="25" value="C" style="whiteSpace=wrap;html=1;aspect=fixed;strokeWidth=2;shadow=0;strokeColor=light-dark(#000000,#2E2E2E);fillColor=light-dark(#FFFFFF,#FFFFFF);fontColor=light-dark(#000000,#080808);container=0;fontSize=21;" parent="1" vertex="1">
                    <mxGeometry x="350" y="-500" width="80" height="80" as="geometry"/>
                </mxCell>
                <mxCell id="26" value="Y" style="whiteSpace=wrap;html=1;aspect=fixed;strokeWidth=2;shadow=0;strokeColor=light-dark(#000000,#2E2E2E);fillColor=light-dark(#FFFFFF,#FFFFFF);fontColor=light-dark(#000000,#080808);container=0;fontSize=21;" parent="1" vertex="1">
                    <mxGeometry x="430" y="-500" width="80" height="80" as="geometry"/>
                </mxCell>
                <mxCell id="27" value="P" style="whiteSpace=wrap;html=1;aspect=fixed;strokeWidth=2;shadow=0;strokeColor=light-dark(#000000,#2E2E2E);fillColor=light-dark(#FFFFFF,#FFFFFF);fontColor=light-dark(#000000,#080808);container=0;fontSize=21;" parent="1" vertex="1">
                    <mxGeometry x="510" y="-500" width="80" height="80" as="geometry"/>
                </mxCell>
                <mxCell id="28" value="C" style="whiteSpace=wrap;html=1;aspect=fixed;strokeWidth=2;shadow=0;strokeColor=light-dark(#000000,#2E2E2E);fillColor=light-dark(#FFFFFF,#FFFFFF);fontColor=light-dark(#000000,#080808);container=0;fontSize=21;" parent="1" vertex="1">
                    <mxGeometry x="270" y="-420" width="80" height="80" as="geometry"/>
                </mxCell>
                <mxCell id="29" value="C" style="whiteSpace=wrap;html=1;aspect=fixed;strokeWidth=2;shadow=0;strokeColor=light-dark(#000000,#2E2E2E);fillColor=light-dark(#FFFFFF,#FFFFFF);fontColor=light-dark(#000000,#080808);container=0;fontSize=21;" parent="1" vertex="1">
                    <mxGeometry x="350" y="-420" width="80" height="80" as="geometry"/>
                </mxCell>
                <mxCell id="30" value="C" style="whiteSpace=wrap;html=1;aspect=fixed;strokeWidth=2;shadow=0;strokeColor=light-dark(#000000,#2E2E2E);fillColor=light-dark(#FFFFFF,#FFFFFF);fontColor=light-dark(#000000,#080808);container=0;fontSize=21;" parent="1" vertex="1">
                    <mxGeometry x="430" y="-420" width="80" height="80" as="geometry"/>
                </mxCell>
                <mxCell id="31" value="Y" style="whiteSpace=wrap;html=1;aspect=fixed;strokeWidth=2;shadow=0;strokeColor=light-dark(#000000,#2E2E2E);fillColor=light-dark(#FFFFFF,#FFFFFF);fontColor=light-dark(#000000,#080808);container=0;fontSize=21;" parent="1" vertex="1">
                    <mxGeometry x="510" y="-420" width="80" height="80" as="geometry"/>
                </mxCell>
            </root>
        </mxGraphModel>
    </diagram>
</mxfile>